<?xml version="1.0" encoding="UTF-8"?>
<!-- Generator: Adobe Illustrator 26.2.1, SVG Export Plug-In . SVG Version: 6.00 Build 0)  -->
<svg version="1.1" id="Layer_1" xmlns="http://www.w3.org/2000/svg" xmlns:xlink="http://www.w3.org/1999/xlink" x="0px" y="0px" viewBox="0 0 174 60" style="enable-background:new 0 0 174 60;" xml:space="preserve">
<style type="text/css">
	.st0{enable-background:new    ;}
	.st1{fill:#0476C8;}
</style>
<g id="Group_16359" transform="translate(-87 -55)">
	<g class="st0">
		<path class="st1" d="M167.1,73.4c-1.9,0-3.3-0.5-4.2-1.5c-1.3-1.2-2-3-2-5.3c0-2.4,0.7-4.2,2-5.3c1-1,2.4-1.5,4.2-1.5    s3.3,0.5,4.2,1.5c1.3,1.2,2,3,2,5.3c0,2.3-0.7,4.1-2,5.3C170.4,72.9,169,73.4,167.1,73.4z M169.7,69.9c0.6-0.8,0.9-1.9,0.9-3.4    c0-1.5-0.3-2.6-0.9-3.4s-1.5-1.2-2.6-1.2s-1.9,0.4-2.6,1.2s-1,1.9-1,3.4s0.3,2.6,1,3.4s1.5,1.2,2.6,1.2S169,70.7,169.7,69.9z"/>
		<path class="st1" d="M183.2,64.4c0.8,0.8,1.2,2,1.2,3.6c0,1.7-0.4,3-1.1,3.9c-0.8,0.9-1.7,1.3-2.9,1.3c-0.8,0-1.4-0.2-1.9-0.6    c-0.3-0.2-0.5-0.5-0.8-0.9v5h-2.5V63.4h2.4v1.4c0.3-0.4,0.6-0.7,0.9-1c0.6-0.4,1.2-0.6,2-0.6C181.5,63.2,182.4,63.6,183.2,64.4z     M181.8,68.2c0-0.7-0.2-1.4-0.5-2c-0.3-0.6-0.9-0.9-1.6-0.9c-0.9,0-1.5,0.4-1.9,1.3c-0.2,0.5-0.3,1-0.3,1.7c0,1.1,0.3,1.9,0.9,2.3    c0.4,0.3,0.8,0.4,1.2,0.4c0.7,0,1.2-0.3,1.6-0.8C181.6,69.8,181.8,69.1,181.8,68.2z"/>
		<path class="st1" d="M194.4,70.2c-0.1,0.6-0.4,1.1-0.9,1.7c-0.8,0.9-2,1.4-3.4,1.4c-1.2,0-2.3-0.4-3.2-1.2s-1.4-2.1-1.4-3.8    c0-1.7,0.4-2.9,1.3-3.8c0.8-0.9,1.9-1.3,3.3-1.3c0.8,0,1.5,0.1,2.2,0.4s1.2,0.8,1.6,1.4c0.4,0.6,0.6,1.2,0.7,2    c0.1,0.4,0.1,1.1,0.1,1.9h-6.6c0,1,0.3,1.6,0.9,2c0.3,0.2,0.8,0.4,1.2,0.4c0.5,0,0.9-0.1,1.3-0.4c0.2-0.2,0.3-0.4,0.5-0.7H194.4z     M191.9,67.3c0-0.7-0.2-1.2-0.6-1.5c-0.4-0.3-0.8-0.5-1.3-0.5c-0.6,0-1,0.2-1.3,0.5c-0.3,0.4-0.5,0.9-0.6,1.5H191.9z"/>
		<path class="st1" d="M200.7,65.3c-0.8,0-1.4,0.4-1.7,1.1c-0.2,0.4-0.2,0.9-0.2,1.5V73h-2.5v-9.6h2.4v1.4c0.3-0.5,0.6-0.8,0.9-1.1    c0.5-0.4,1.2-0.6,2-0.6c1,0,1.8,0.3,2.4,0.8c0.6,0.5,0.9,1.4,0.9,2.6V73h-2.6v-5.8c0-0.5-0.1-0.9-0.2-1.2    C201.8,65.5,201.4,65.3,200.7,65.3z"/>
	</g>
	<g class="st0">
		<path class="st1" d="M169.3,90.7c-0.7,0.4-1.6,0.7-2.6,0.7c-1.7,0-3.1-0.6-4.2-1.8c-1.1-1.2-1.7-2.8-1.7-4.9c0-2.1,0.6-3.8,1.7-5    s2.7-1.9,4.6-1.9c1.6,0,3,0.4,4,1.3c1,0.8,1.6,1.9,1.7,3.1h-2.7c-0.2-0.9-0.7-1.5-1.5-1.9c-0.4-0.2-0.9-0.3-1.5-0.3    c-1,0-1.9,0.4-2.6,1.2c-0.7,0.8-1,2-1,3.6c0,1.6,0.4,2.7,1.1,3.4s1.6,1,2.5,1c0.9,0,1.7-0.3,2.2-0.8s0.9-1.2,1.1-2.1h-3V84h5.4v7    H171l-0.3-1.6C170.2,90,169.7,90.4,169.3,90.7z"/>
		<path class="st1" d="M183.4,88.2c-0.1,0.6-0.4,1.1-0.9,1.7c-0.8,0.9-2,1.4-3.4,1.4c-1.2,0-2.3-0.4-3.2-1.2s-1.4-2.1-1.4-3.8    c0-1.7,0.4-2.9,1.3-3.8c0.8-0.9,1.9-1.3,3.3-1.3c0.8,0,1.5,0.1,2.2,0.4s1.2,0.8,1.6,1.4c0.4,0.6,0.6,1.2,0.7,2    c0.1,0.4,0.1,1.1,0.1,1.9h-6.6c0,1,0.3,1.6,0.9,2c0.3,0.2,0.8,0.4,1.2,0.4c0.5,0,0.9-0.1,1.3-0.4c0.2-0.2,0.3-0.4,0.5-0.7H183.4z     M180.9,85.3c0-0.7-0.2-1.2-0.6-1.5c-0.4-0.3-0.8-0.5-1.3-0.5c-0.6,0-1,0.2-1.3,0.5c-0.3,0.4-0.5,0.9-0.6,1.5H180.9z"/>
		<path class="st1" d="M193.2,82.6c0.8,1,1.2,2.2,1.2,3.6c0,1.4-0.4,2.6-1.2,3.6s-2,1.5-3.7,1.5s-2.9-0.5-3.7-1.5s-1.2-2.2-1.2-3.6    c0-1.4,0.4-2.6,1.2-3.6s2-1.5,3.7-1.5S192.4,81.6,193.2,82.6z M189.5,83.2c-0.7,0-1.3,0.3-1.7,0.8c-0.4,0.5-0.6,1.3-0.6,2.2    c0,1,0.2,1.7,0.6,2.2c0.4,0.5,1,0.8,1.7,0.8s1.3-0.3,1.7-0.8s0.6-1.3,0.6-2.2c0-1-0.2-1.7-0.6-2.2    C190.8,83.5,190.2,83.2,189.5,83.2z"/>
		<path class="st1" d="M202.8,81.9c0.8,0.5,1.2,1.3,1.3,2.5h-2.5c0-0.3-0.1-0.6-0.3-0.8c-0.3-0.3-0.7-0.5-1.4-0.5    c-0.5,0-0.9,0.1-1.2,0.3c-0.2,0.2-0.3,0.4-0.3,0.6c0,0.3,0.1,0.5,0.4,0.6c0.2,0.1,1.1,0.4,2.6,0.7c1,0.2,1.7,0.6,2.2,1.1    c0.5,0.5,0.7,1.1,0.7,1.8c0,0.9-0.4,1.7-1.1,2.3c-0.7,0.6-1.8,0.9-3.3,0.9c-1.5,0-2.6-0.3-3.3-1c-0.7-0.6-1.1-1.4-1.1-2.4h2.5    c0.1,0.4,0.2,0.8,0.3,0.9c0.3,0.3,0.9,0.5,1.7,0.5c0.5,0,0.9-0.1,1.2-0.2c0.3-0.1,0.4-0.4,0.4-0.7c0-0.3-0.1-0.5-0.4-0.6    s-1.1-0.4-2.6-0.8c-1.1-0.3-1.8-0.6-2.3-1c-0.4-0.4-0.7-1-0.7-1.7c0-0.9,0.3-1.6,1-2.3c0.7-0.6,1.7-1,2.9-1    C201,81.1,202,81.4,202.8,81.9z"/>
		<path class="st1" d="M214.2,82.4c0.8,0.8,1.2,2,1.2,3.6c0,1.7-0.4,3-1.1,3.9c-0.8,0.9-1.7,1.3-2.9,1.3c-0.8,0-1.4-0.2-1.9-0.6    c-0.3-0.2-0.5-0.5-0.8-0.9v5h-2.5V81.4h2.4v1.4c0.3-0.4,0.6-0.7,0.9-1c0.6-0.4,1.2-0.6,2-0.6C212.5,81.2,213.4,81.6,214.2,82.4z     M212.8,86.2c0-0.7-0.2-1.4-0.5-2c-0.3-0.6-0.9-0.9-1.6-0.9c-0.9,0-1.5,0.4-1.9,1.3c-0.2,0.5-0.3,1-0.3,1.7c0,1.1,0.3,1.9,0.9,2.3    c0.4,0.3,0.8,0.4,1.2,0.4c0.7,0,1.2-0.3,1.6-0.8C212.6,87.8,212.8,87.1,212.8,86.2z"/>
		<path class="st1" d="M217.5,82.5c0.7-0.8,1.8-1.3,3.4-1.3c1,0,2,0.2,2.8,0.6s1.2,1.2,1.2,2.4v4.4c0,0.3,0,0.7,0,1.1    c0,0.3,0.1,0.6,0.1,0.7s0.2,0.2,0.4,0.3V91h-2.7c-0.1-0.2-0.1-0.4-0.2-0.5s-0.1-0.4-0.1-0.6c-0.3,0.4-0.7,0.7-1.2,1    c-0.5,0.3-1.1,0.5-1.8,0.5c-0.9,0-1.6-0.2-2.1-0.7c-0.6-0.5-0.8-1.2-0.8-2.1c0-1.2,0.5-2,1.4-2.6c0.5-0.3,1.2-0.5,2.2-0.6l0.9-0.1    c0.5-0.1,0.8-0.1,1-0.2c0.4-0.2,0.5-0.4,0.5-0.7c0-0.4-0.1-0.7-0.4-0.8c-0.3-0.1-0.7-0.2-1.2-0.2c-0.6,0-1,0.1-1.3,0.4    c-0.2,0.2-0.3,0.5-0.4,0.9h-2.4C216.9,83.7,217.1,83,217.5,82.5z M219.4,89.2c0.2,0.2,0.5,0.3,0.9,0.3c0.5,0,1-0.2,1.5-0.5    c0.5-0.3,0.7-0.9,0.7-1.7v-0.9c-0.2,0.1-0.3,0.2-0.5,0.2c-0.2,0.1-0.4,0.1-0.7,0.2l-0.6,0.1c-0.5,0.1-0.9,0.2-1.1,0.3    c-0.4,0.2-0.6,0.6-0.6,1.1C219,88.7,219.2,89,219.4,89.2z"/>
		<path class="st1" d="M231.6,89.2v1.9l-1.2,0c-1.2,0-2-0.2-2.4-0.6c-0.3-0.3-0.4-0.7-0.4-1.3v-5.9h-1.3v-1.8h1.3v-2.7h2.5v2.7h1.6    v1.8H230v5.1c0,0.4,0,0.6,0.1,0.7c0.1,0.1,0.4,0.1,0.9,0.1c0.1,0,0.2,0,0.2,0C231.4,89.2,231.5,89.2,231.6,89.2z"/>
		<path class="st1" d="M235.8,78v2.3h-2.5V78H235.8z M235.8,81.4V91h-2.5v-9.6H235.8z"/>
		<path class="st1" d="M238.5,82.5c0.7-0.8,1.8-1.3,3.4-1.3c1,0,2,0.2,2.8,0.6s1.2,1.2,1.2,2.4v4.4c0,0.3,0,0.7,0,1.1    c0,0.3,0.1,0.6,0.1,0.7s0.2,0.2,0.4,0.3V91h-2.7c-0.1-0.2-0.1-0.4-0.2-0.5s-0.1-0.4-0.1-0.6c-0.3,0.4-0.7,0.7-1.2,1    c-0.5,0.3-1.1,0.5-1.8,0.5c-0.9,0-1.6-0.2-2.1-0.7c-0.6-0.5-0.8-1.2-0.8-2.1c0-1.2,0.5-2,1.4-2.6c0.5-0.3,1.2-0.5,2.2-0.6l0.9-0.1    c0.5-0.1,0.8-0.1,1-0.2c0.4-0.2,0.5-0.4,0.5-0.7c0-0.4-0.1-0.7-0.4-0.8c-0.3-0.1-0.7-0.2-1.2-0.2c-0.6,0-1,0.1-1.3,0.4    c-0.2,0.2-0.3,0.5-0.4,0.9h-2.4C237.9,83.7,238.1,83,238.5,82.5z M240.4,89.2c0.2,0.2,0.5,0.3,0.9,0.3c0.5,0,1-0.2,1.5-0.5    c0.5-0.3,0.7-0.9,0.7-1.7v-0.9c-0.2,0.1-0.3,0.2-0.5,0.2c-0.2,0.1-0.4,0.1-0.7,0.2l-0.6,0.1c-0.5,0.1-0.9,0.2-1.1,0.3    c-0.4,0.2-0.6,0.6-0.6,1.1C240.1,88.7,240.2,89,240.4,89.2z"/>
		<path class="st1" d="M248.3,78h2.5v13h-2.5V78z"/>
	</g>
	<g class="st0">
		<path class="st1" d="M170.5,108c-1,0.9-2.2,1.3-3.7,1.3c-1.9,0-3.3-0.6-4.4-1.8c-1.1-1.2-1.6-2.8-1.6-4.9c0-2.3,0.6-4,1.8-5.2    c1.1-1.1,2.4-1.6,4-1.6c2.2,0,3.8,0.7,4.8,2.1c0.6,0.8,0.9,1.6,0.9,2.4h-2.7c-0.2-0.6-0.4-1.1-0.7-1.4c-0.5-0.6-1.2-0.8-2.2-0.8    c-1,0-1.8,0.4-2.3,1.2c-0.6,0.8-0.9,1.9-0.9,3.4s0.3,2.5,0.9,3.3s1.4,1.1,2.3,1.1c0.9,0,1.7-0.3,2.2-0.9c0.3-0.3,0.5-0.8,0.7-1.5    h2.7C172.1,106,171.5,107.1,170.5,108z"/>
		<path class="st1" d="M182.2,100.6c0.8,1,1.2,2.2,1.2,3.6c0,1.4-0.4,2.6-1.2,3.6s-2,1.5-3.7,1.5s-2.9-0.5-3.7-1.5s-1.2-2.2-1.2-3.6    c0-1.4,0.4-2.6,1.2-3.6s2-1.5,3.7-1.5S181.3,99.6,182.2,100.6z M178.5,101.2c-0.7,0-1.3,0.3-1.7,0.8c-0.4,0.5-0.6,1.3-0.6,2.2    s0.2,1.7,0.6,2.2c0.4,0.5,1,0.8,1.7,0.8s1.3-0.3,1.7-0.8s0.6-1.3,0.6-2.2s-0.2-1.7-0.6-2.2C179.8,101.5,179.2,101.2,178.5,101.2z"/>
		<path class="st1" d="M189.7,101.3c-0.8,0-1.4,0.4-1.7,1.1c-0.2,0.4-0.2,0.9-0.2,1.5v5.2h-2.5v-9.6h2.4v1.4    c0.3-0.5,0.6-0.8,0.9-1.1c0.5-0.4,1.2-0.6,2-0.6c1,0,1.8,0.3,2.4,0.8c0.6,0.5,0.9,1.4,0.9,2.6v6.5h-2.6v-5.8    c0-0.5-0.1-0.9-0.2-1.2C190.8,101.5,190.4,101.3,189.7,101.3z"/>
		<path class="st1" d="M202.8,99.9c0.8,0.5,1.2,1.3,1.3,2.5h-2.5c0-0.3-0.1-0.6-0.3-0.8c-0.3-0.3-0.7-0.5-1.4-0.5    c-0.5,0-0.9,0.1-1.2,0.3c-0.2,0.2-0.3,0.4-0.3,0.6c0,0.3,0.1,0.5,0.4,0.6c0.2,0.1,1.1,0.4,2.6,0.7c1,0.2,1.7,0.6,2.2,1.1    c0.5,0.5,0.7,1.1,0.7,1.8c0,0.9-0.4,1.7-1.1,2.3c-0.7,0.6-1.8,0.9-3.3,0.9c-1.5,0-2.6-0.3-3.3-1c-0.7-0.6-1.1-1.4-1.1-2.4h2.5    c0.1,0.4,0.2,0.8,0.3,0.9c0.3,0.3,0.9,0.5,1.7,0.5c0.5,0,0.9-0.1,1.2-0.2c0.3-0.1,0.4-0.4,0.4-0.7c0-0.3-0.1-0.5-0.4-0.6    s-1.1-0.4-2.6-0.8c-1.1-0.3-1.8-0.6-2.3-1c-0.4-0.4-0.7-1-0.7-1.7c0-0.9,0.3-1.6,1-2.3c0.7-0.6,1.7-1,2.9-1    C201,99.1,202,99.4,202.8,99.9z"/>
		<path class="st1" d="M214.2,100.6c0.8,1,1.2,2.2,1.2,3.6c0,1.4-0.4,2.6-1.2,3.6s-2,1.5-3.7,1.5s-2.9-0.5-3.7-1.5s-1.2-2.2-1.2-3.6    c0-1.4,0.4-2.6,1.2-3.6s2-1.5,3.7-1.5S213.3,99.6,214.2,100.6z M210.5,101.2c-0.7,0-1.3,0.3-1.7,0.8c-0.4,0.5-0.6,1.3-0.6,2.2    s0.2,1.7,0.6,2.2c0.4,0.5,1,0.8,1.7,0.8s1.3-0.3,1.7-0.8s0.6-1.3,0.6-2.2s-0.2-1.7-0.6-2.2C211.8,101.5,211.2,101.2,210.5,101.2z"/>
		<path class="st1" d="M222,101.7c-1,0-1.7,0.3-2,1c-0.2,0.4-0.3,0.9-0.3,1.7v4.6h-2.5v-9.6h2.4v1.7c0.4-0.6,0.7-1.1,1-1.3    c0.5-0.4,1.1-0.6,1.8-0.6c0,0,0.1,0,0.1,0c0,0,0.1,0,0.2,0v2.6c-0.2,0-0.3,0-0.4,0S222.1,101.7,222,101.7z"/>
		<path class="st1" d="M228.6,107.2v1.9l-1.2,0c-1.2,0-2-0.2-2.4-0.6c-0.3-0.3-0.4-0.7-0.4-1.3v-5.9h-1.3v-1.8h1.3v-2.7h2.5v2.7h1.6    v1.8H227v5.1c0,0.4,0,0.6,0.1,0.7c0.1,0.1,0.4,0.1,0.9,0.1c0.1,0,0.2,0,0.2,0C228.4,107.2,228.5,107.2,228.6,107.2z"/>
		<path class="st1" d="M232.7,96v2.3h-2.5V96H232.7z M232.7,99.4v9.6h-2.5v-9.6H232.7z"/>
		<path class="st1" d="M241.3,107.6c0,0-0.1,0.1-0.2,0.3s-0.2,0.3-0.3,0.4c-0.4,0.4-0.8,0.6-1.1,0.7c-0.4,0.1-0.8,0.2-1.3,0.2    c-1.4,0-2.4-0.5-2.9-1.5c-0.3-0.6-0.4-1.4-0.4-2.5v-5.8h2.6v5.8c0,0.5,0.1,1,0.2,1.2c0.2,0.5,0.7,0.7,1.3,0.7c0.9,0,1.4-0.3,1.8-1    c0.2-0.4,0.2-0.9,0.2-1.5v-5.2h2.5v9.6h-2.4V107.6z"/>
		<path class="st1" d="M251.5,102.1c-0.2-0.5-0.6-0.7-1.2-0.7c-0.7,0-1.2,0.2-1.4,0.7c-0.1,0.3-0.2,0.7-0.2,1.2v5.8h-2.5v-9.6h2.4    v1.4c0.3-0.5,0.6-0.9,0.9-1.1c0.5-0.4,1.1-0.6,1.9-0.6c0.7,0,1.3,0.2,1.8,0.5c0.4,0.3,0.6,0.7,0.8,1.2c0.3-0.6,0.7-1,1.2-1.2    c0.5-0.3,1.1-0.4,1.7-0.4c0.4,0,0.8,0.1,1.2,0.2s0.8,0.5,1.1,0.9c0.3,0.3,0.5,0.7,0.5,1.2c0.1,0.3,0.1,0.8,0.1,1.4l0,6h-2.6v-6.1    c0-0.4-0.1-0.7-0.2-0.9c-0.2-0.4-0.6-0.7-1.2-0.7c-0.7,0-1.2,0.3-1.4,0.9c-0.1,0.3-0.2,0.7-0.2,1.1v5.7h-2.5v-5.7    C251.7,102.7,251.7,102.3,251.5,102.1z"/>
	</g>
	<g id="Group_16358">
		<path id="Path_11055" class="st1" d="M87,101l24.2,14V98.2l-12.1-7v5.6l7.3,4.2v5.6l-14.5-8.4V81.5l12.1,7l2.4,1.4l4.8,2.8v-5.6    L87,73.1V101z"/>
		<path id="Path_11056" class="st1" d="M99.1,69l14.5-8.4l14.5,8.4l-2.4,1.4l-12.1,7L99.1,69z M113.6,55L89.4,69l24.2,14l24.2-14    L113.6,55z"/>
		<path id="Path_11057" class="st1" d="M116,87.1v5.5l0,0v22.3l0,0v0.1l24.2-14V89.8l-4.8,2.8v5.6l-14.5,8.4V89.8l4.8-2.8l4.8-2.8    l4.8-2.8V87l4.8-2.8V73.1L116,87.1z"/>
	</g>
</g>
</svg>